<?xml version="1.0" encoding="UTF-8" standalone="no"?>
<svg
   width="237.00999"
   height="41.919998"
   viewBox="0 0 237.00999 41.919998"
   version="1.1"
   xml:space="preserve"
   style="clip-rule:evenodd;fill-rule:evenodd;stroke-linejoin:round;stroke-miterlimit:2"
   id="svg30"
   sodipodi:docname="niimbot.svg"
   inkscape:version="1.2.2 (b0a8486541, 2022-12-01)"
   xmlns:inkscape="http://www.inkscape.org/namespaces/inkscape"
   xmlns:sodipodi="http://sodipodi.sourceforge.net/DTD/sodipodi-0.dtd"
   xmlns="http://www.w3.org/2000/svg"
   xmlns:svg="http://www.w3.org/2000/svg"><defs
   id="defs34" /><sodipodi:namedview
   id="namedview32"
   pagecolor="#ffffff"
   bordercolor="#000000"
   borderopacity="0.25"
   inkscape:showpageshadow="2"
   inkscape:pageopacity="0.0"
   inkscape:pagecheckerboard="0"
   inkscape:deskcolor="#d1d1d1"
   showgrid="false"
   inkscape:zoom="1.9542403"
   inkscape:cx="182.93554"
   inkscape:cy="83.664227"
   inkscape:window-width="1920"
   inkscape:window-height="971"
   inkscape:window-x="0"
   inkscape:window-y="0"
   inkscape:window-maximized="1"
   inkscape:current-layer="svg30" />
    <g
   id="g4">
        <rect
   x="41.310001"
   y="1.22"
   width="11.35"
   height="39.509998"
   style="fill:#ea4e49"
   id="rect2" />
    </g>
    <g
   id="g8">
        <rect
   x="60.509998"
   y="1.22"
   width="11.35"
   height="39.509998"
   style="fill:#ea4e49"
   id="rect6" />
    </g>
    <g
   id="g12">
        <path
   d="M 112.7,1.28 112.65,1.25 100.55,18.83 88.48,1.29 V 1.3 L 88.43,1.24 h -8.97 v 39.5 h 10.66 v -18.9 l 4.18,6.07 -0.01,0.02 6.25,9.08 0.01,-0.01 6.25,-9.08 -0.01,-0.01 4.1,-5.95 v 18.78 h 10.46 V 1.24 h -8.62 z"
   style="fill:#ea4e49;fill-rule:nonzero"
   id="path10" />
    </g>
    <g
   id="g16">
        <path
   d="M 23.2,20.9 10.28,2.95 9.04,1.22 H 0 V 40.73 H 10.28 V 20.95 l 14.2,19.74 0.01,-0.01 0.05,0.06 h 8.94 V 1.24 H 23.2 Z"
   style="fill:#ea4e49;fill-rule:nonzero"
   id="path14" />
    </g>
    <g
   id="g20">
        <path
   d="m 152.83,19.08 c 2.75,-1.7 4.58,-4.74 4.58,-8.21 0,-5.33 -4.32,-9.65 -9.65,-9.65 -6.16,0 -12.32,0 -18.48,0.01 v 39.5 h 18.66 c 6.26,0 11.33,-5.07 11.33,-11.33 v -0.12 c 0,-4.5 -2.63,-8.39 -6.43,-10.22 z m -5.35,-6.58 c 0,2.54 -2.06,4.6 -4.6,4.6 h -3.55 V 7.9 h 3.55 c 2.54,0 4.6,2.06 4.6,4.6 z m 1.61,16.1 c 0,2.95 -2.4,5.35 -5.35,5.35 h -4.4 v -10.7 h 4.4 c 2.95,0 5.35,2.4 5.35,5.35 z"
   style="fill:#ea4e49;fill-rule:nonzero"
   id="path18" />
    </g>
    <g
   id="g24">
        <path
   d="m 185.32,0 c -11.58,0 -20.96,9.39 -20.96,20.96 0,11.57 9.39,20.96 20.96,20.96 11.57,0 20.96,-9.39 20.96,-20.96 C 206.28,9.39 196.89,0 185.32,0 Z m -0.05,31.69 c -5.91,0 -10.71,-4.79 -10.71,-10.71 0,-5.92 4.79,-10.71 10.71,-10.71 5.92,0 10.71,4.79 10.71,10.71 0,5.92 -4.79,10.71 -10.71,10.71 z"
   style="fill:#ea4e49;fill-rule:nonzero"
   id="path22" />
    </g>
    <g
   id="g28">
        <path
   d="m 237.01,1.22 h -33.86 v 0.03 c 2.58,2.1 4.64,4.81 5.98,7.9 h 7.66 v 31.59 h 10.88 V 9.15 h 9.34 z"
   style="fill:#ea4e49;fill-rule:nonzero"
   id="path26" />
    </g>
</svg>
